<?xml version="1.0" encoding="utf-8"?>
<!-- Generator: Adobe Illustrator 21.0.0, SVG Export Plug-In . SVG Version: 6.00 Build 0)  -->
<svg version="1.1" id="图层_1" xmlns="http://www.w3.org/2000/svg" xmlns:xlink="http://www.w3.org/1999/xlink" x="0px" y="0px"
	 viewBox="0 0 300 222" style="enable-background:new 0 0 300 222;" xml:space="preserve">
<style type="text/css">
	.st0{fill:#006297;}
	.st1{fill:#FFFFFF;}
	.st2{fill:#0A5F8F;}
	.st3{fill:none;stroke:#FFFFFF;stroke-width:5;stroke-linecap:round;stroke-miterlimit:10;}
</style>
<g>
	<path class="st0" d="M153.9,152.7c16.7,15,22.8,20.6,48.1,13.1c28.1-8.3,51.4-14.6,67.9-15.2c-4-44.9-19.7-92.5-82.2-92.5
		c-76.5,0-117.1,160-153.3,66.6c-1.3,33.3,9.4,52.2,32.4,62.5C83.8,175.2,143.2,143.1,153.9,152.7z"/>
	<g>
		<path class="st1" d="M151.2,199.4c-42.4,0-67.4-3.8-86.2-13.1c15.7-11,63.3-37.6,82-37.6c2.7,0,4.7,0.6,5.9,1.7l1,0.9
			c11.3,10.2,18.1,16.3,29.9,16.3c4.9,0,10.5-1,17.7-3.1c3.6-1.1,7.1-2.1,10.4-3.1c22.5-6.7,37.3-11.2,51.7-12.1l0.1,2
			c1,11.6-2.8,23-10.8,32c-8,8.9-19.2,14.3-31,14.6l-10.2,0.3C188.8,198.7,169.1,199.4,151.2,199.4
			C151.2,199.4,151.2,199.4,151.2,199.4z"/>
		<path class="st2" d="M146.9,148.7c2.6,0,4.6,0.5,5.8,1.6l1,0.9c11.3,10.2,18.1,16.4,30,16.4c4.9,0,10.5-1,17.7-3.1
			c3.6-1.1,7.1-2.1,10.4-3.1c22.4-6.7,37.2-11.2,51.5-12.1l0.1,1.9c1,11.6-2.8,22.9-10.7,31.8c-7.9,8.9-19.2,14.2-30.9,14.6
			c-3.5,0.1-6.9,0.2-10.2,0.3c-22.9,0.7-42.6,1.3-60.5,1.3c-42.3,0-67.2-3.8-85.9-13C81.2,175.1,128.4,148.7,146.9,148.7
			 M146.9,148.4c-18.8,0-67.3,27.2-82.2,37.8c21,10.5,49,13.3,86.5,13.3c20.6,0,44-0.8,70.7-1.6c24.5-0.7,44-22.4,41.9-46.8
			l-0.2-2.2c-16.6,1.1-34.1,6.9-62.3,15.3c-7.2,2.1-12.8,3.1-17.6,3.1c-12.1,0-18.9-6.4-30.8-17.2
			C151.6,149,149.6,148.4,146.9,148.4L146.9,148.4z"/>
	</g>
	<ellipse transform="matrix(0.7071 -0.7071 0.7071 0.7071 -46.7436 164.3072)" class="st1" cx="175" cy="138.6" rx="5.1" ry="5.1"/>
	<g>
		<path class="st3" d="M234,14c33.5,0,60.6,27.1,60.6,60.6"/>
		<path class="st3" d="M234,27.8c25.8,0,46.8,20.9,46.8,46.8"/>
		<path class="st3" d="M234,41.9c18.1,0,32.7,14.6,32.7,32.7"/>
	</g>
	<path class="st0" d="M78.2,117.8c8.3-23.5-17.8-38.2-36.5-20.2C29,90.1,4.2,92.8,5.6,114.9c12.1-3.4,29-0.3,29.4,25.4
		c4.5-0.3,8.8,10.2,14.3,9.3C37.1,138.6,53.5,105.4,78.2,117.8z"/>
</g>
<g>
</g>
<g>
</g>
<g>
</g>
<g>
</g>
<g>
</g>
<g>
</g>
</svg>
