<?xml version="1.0" encoding="utf-8"?>
<!-- Generator: Adobe Illustrator 21.0.0, SVG Export Plug-In . SVG Version: 6.00 Build 0)  -->
<svg version="1.1" id="图层_1" xmlns="http://www.w3.org/2000/svg" xmlns:xlink="http://www.w3.org/1999/xlink" x="0px" y="0px"
	 viewBox="0 0 800 222" style="enable-background:new 0 0 800 222;" xml:space="preserve">
<style type="text/css">
	.st0{fill:#006297;}
	.st1{fill:#FFFFFF;}
	.st2{fill:#0A5F8F;}
	.st3{fill:none;stroke:#FFFFFF;stroke-width:5;stroke-linecap:round;stroke-miterlimit:10;}
</style>
<path class="st0" d="M125.1,152.1c13.9,12.6,19.1,17.2,40.2,10.9c23.5-7,42.9-12.2,56.7-12.6c-3.3-37.5-16.4-77.2-68.6-77.2
	c-63.8,0-97.8,133.6-128,55.6c-1.1,27.8,7.9,43.5,27.1,52.2C66.6,170.8,116.2,144,125.1,152.1z"/>
<g>
	<path class="st1" d="M122.8,191c-35.4,0-56.3-3.2-71.9-10.9c13.1-9.2,52.9-31.4,68.4-31.4c2.2,0,3.9,0.5,4.9,1.4l0.8,0.7
		c9.4,8.5,15.1,13.6,25,13.6c4.1,0,8.8-0.8,14.8-2.6c3-0.9,5.9-1.8,8.7-2.6c18.7-5.6,31.1-9.3,43.1-10.1l0.1,1.7
		c0.8,9.7-2.3,19.2-9,26.7c-6.6,7.5-16.1,11.9-25.8,12.2l-8.5,0.3C154.3,190.4,137.8,191,122.8,191C122.8,191,122.8,191,122.8,191z"
		/>
	<path class="st2" d="M119.3,148.8c2.2,0,3.8,0.5,4.8,1.3l0.8,0.7c9.4,8.5,15.1,13.7,25.1,13.7c4.1,0,8.8-0.8,14.8-2.6
		c3-0.9,5.9-1.8,8.7-2.6c18.6-5.6,31-9.3,43-10.1l0.1,1.5c0.8,9.7-2.3,19.1-9,26.5c-6.6,7.4-16,11.9-25.7,12.2l-8.5,0.3
		c-19.1,0.6-35.6,1.1-50.5,1.1c-35.2,0-56-3.1-71.6-10.8C64.6,170.7,103.9,148.8,119.3,148.8 M119.3,148.5
		c-15.7,0-56.2,22.7-68.7,31.6c17.5,8.8,40.9,11.1,72.2,11.1c17.2,0,36.7-0.7,59.1-1.4c20.4-0.6,36.7-18.7,35-39l-0.1-1.8
		c-13.9,0.9-28.5,5.8-52,12.7c-6,1.8-10.7,2.6-14.7,2.6c-10.1,0-15.8-5.3-25.7-14.3C123.2,148.9,121.5,148.5,119.3,148.5
		L119.3,148.5z"/>
</g>
<ellipse transform="matrix(0.7071 -0.7071 0.7071 0.7071 -57.3774 141.9814)" class="st1" cx="142.7" cy="140.3" rx="4.3" ry="4.3"/>
<g>
	<path class="st3" d="M192,36.2c28,0,50.6,22.6,50.6,50.6"/>
	<path class="st3" d="M192,47.8c21.6,0,39,17.5,39,39"/>
	<path class="st3" d="M192,59.6c15.1,0,27.3,12.2,27.3,27.3"/>
</g>
<path class="st0" d="M61.9,122.9C68.8,103.2,47.1,91,31.4,106c-10.6-6.2-31.3-4-30.1,14.5c10.1-2.9,24.2-0.3,24.6,21.2
	c3.7-0.3,7.3,8.5,12,7.8C27.6,140.3,41.3,112.6,61.9,122.9z"/>
<g>
	<path class="st1" d="M269.4,62.3c9.1,5.8,17.1,11.3,24.1,16.7c-1.2,1.2-3.5,4-6.7,8.1c-6.8-5.7-14.7-11.6-23.5-17.8L269.4,62.3z
		 M280.8,97.8c3.5,1.6,6.8,3,10.1,4.3c-3.9,13.4-8.7,29.2-14.4,47.4l-10.5-4C271.7,130.2,276.7,114.2,280.8,97.8z M274.5,31.5
		c9.1,6.3,17.2,12.2,24.3,17.8c-2.6,3-4.9,5.7-6.9,8c-9.1-7.8-17-14.1-23.5-18.8L274.5,31.5z M386.2,131.6c-2.4,3-4.7,5.9-7,8.8
		c-13.9-9.1-25.2-20.8-33.8-35.1v45.3h-9.8v-45.6c-9.3,14.2-21.5,26.5-36.5,36.9c-3-3.4-5.4-6-7.4-7.8
		c17.8-10.4,31.6-22.3,41.4-35.7h-34.7v-9h37.3V73.8h9.8v15.4h38.2v9h-36.2C357.9,112.5,370.8,123.6,386.2,131.6z M328.7,54.4
		l6.5,6.7c-10.2,9-20,16.6-29.3,23c-1.7-2.6-3.7-5.3-6.1-7.9C310.8,69.4,320.4,62.2,328.7,54.4z M301.7,37.5h79.5V58h-9.9V46.9
		h-59.8v11.5h-9.9V37.5z M346.1,61l5.9-6.5c10.5,7.1,20.3,14.3,29.5,21.7l-6.5,7.7C365.9,75.7,356.3,68.1,346.1,61z"/>
	<path class="st1" d="M396.1,109.3v-8.6h41.5v8.6c-8.2,14.1-22.4,26.1-42.5,36.1c-1.2-2.5-3.2-5.3-5.8-8.5
		c17.2-7.1,29.8-16.3,37.8-27.5H396.1z M498.7,95.2l6.2,7.9c-8.5,5-17.1,9.8-25.7,14.2c9.4,7.4,20.6,13,33.6,17
		c-2,1.9-4.3,4.9-6.9,9c-21.4-8.5-37.5-21-48.3-37.3v28.8c0,9.2-4.7,13.8-14,13.8c-5.8,0-11.2,0-15.9-0.1c-0.5-3.5-1.1-6.9-1.9-10
		c5.3,0.5,10,0.7,14.3,0.7c5.2,0,7.8-2.4,7.8-7.2V88.8h-32.4v3.3h-9.3V41.6H437c1.9-4.6,3.4-8.9,4.5-13.1l10.1,2.6
		c-1.4,3.4-3,6.9-4.7,10.5h49.5v49.8h-9.3v-2.6h-29.6v3.4c4.1,7.2,9,13.6,14.8,19.2C482.4,105.9,491.2,100.5,498.7,95.2z
		 M487.2,49.7h-71.6v11.5h71.6V49.7z M415.6,80.6h71.6V69.1h-71.6V80.6z"/>
	<path class="st1" d="M576.8,42l7.4,4.8c-5,7.5-10.6,14.9-16.8,22.2h9.1v8.1h-16.2c-3.3,3.7-6.7,7.3-10.1,10.7h20.3v7.4L554.5,111
		v2.2c6.7-1.2,14-2.5,22.1-4c-0.2,3.1-0.4,6-0.5,8.5c-6.8,1.2-14,2.4-21.6,3.8v13.5c0.6,10.2-4.2,15.1-14.3,14.7
		c-3.5,0-8.1-0.1-13.7-0.2c-0.3-2.6-0.7-5.7-1.2-9.3c3.9,0.4,8.3,0.7,13.2,0.7c5.2,0.5,7.6-1.8,7.2-6.9v-10.9
		c-8,1.5-16.4,3.1-25.2,4.8l-1.5-9c6.8-1,15.7-2.4,26.7-4.2v-6.2l13-12.8h-16.5c-6.8,6.3-13.7,12-20.5,17.3c-1.6-2.3-3.6-4.7-5.8-7
		c4.8-3.4,9.2-6.8,13.3-10.2h-10.2v-7.9H538c3.9-3.5,7.6-7,11.2-10.7h-32V69h24.3V56.4h-19.4v-8.1h19.4V31.5h8.9v16.8h15.2v8.1
		h-15.2V69h6.1C563.9,60.7,570.7,51.7,576.8,42z M573.1,91.8c9.3-17.1,16.8-37.3,22.3-60.5l9,2.2c-1.6,6.8-3.5,13.5-5.7,20.1h38.5
		v8.9h-12.1c-0.6,21.2-5.8,39.5-15.6,54.8c7.5,10.3,17.3,18.3,29.5,24.1c-2.3,3.4-4.2,6.4-5.8,9.1c-12-6.9-21.8-15.4-29.4-25.3
		c-8.3,10.4-19.1,19.2-32.4,26.5c-1.5-2.1-3.5-4.9-6.1-8.2c13.7-7,24.7-15.8,33-26.5c-5.8-9.6-9.7-20.5-11.7-32.6
		c-1.9,4-3.8,8-5.8,12C578.3,94.8,575.7,93.2,573.1,91.8z M592.9,69.7c1.6,15,5.4,27.9,11.2,38.9c7.5-13,11.5-28.4,12-46.1h-20.5
		C594.8,65,593.9,67.4,592.9,69.7z"/>
	<path class="st1" d="M730,52.8c10.5,7.2,21,14.8,31.2,22.6l-7,7c-3.4-3-7-5.9-10.7-8.9c-32.3,0.1-56.9,0.6-73.9,1.4
		c-5.2,0.2-9.6,0.7-13.3,1.4l-3.5-10.4c5.7-1.1,10.2-2.6,13.7-4.7c4.9-2.9,9.8-6.4,14.7-10.4h-37.2v-8.6H702c-1.7-3-3.6-6.2-5.7-9.5
		l8.5-4.2c3.7,5.8,6.5,10.4,8.3,13.7H764v8.6h-68.2c-8.1,5.8-15.6,10.8-22.3,15.1c19.3,0,39-0.2,59.1-0.6c-2.7-2-5.5-4-8.4-6.1
		L730,52.8z M660.2,83.4h87.9v51c0,9.7-5.8,14.6-17.3,14.6c-3.9,0-8.6,0-14.2-0.1c-0.2-0.8-0.8-4.2-2-10.1
		c5.7,0.8,10.9,1.2,15.6,1.2c5.5,0,8.4-2.3,8.5-7v-3.8h-69.1v21h-9.4V83.4z M738.8,91.8h-69.1v10.5h69.1V91.8z M669.6,121h69.1
		v-10.5h-69.1V121z"/>
	<path class="st1" d="M769.8,36.4c0-3.5,1.2-6.4,3.7-8.8c2.4-2.4,5.4-3.6,8.9-3.6c3.5,0,6.4,1.2,8.8,3.6c2.4,2.4,3.7,5.4,3.7,8.8
		c0,3.5-1.2,6.4-3.7,8.8c-2.4,2.4-5.4,3.6-8.9,3.6c-3.5,0-6.5-1.2-8.9-3.6C771,42.8,769.8,39.8,769.8,36.4z M771.4,36.4
		c0,3.1,1.1,5.6,3.2,7.8c2.1,2.1,4.7,3.2,7.8,3.2c3,0,5.6-1.1,7.8-3.2c2.1-2.1,3.2-4.7,3.2-7.8s-1.1-5.6-3.2-7.8
		c-2.1-2.1-4.7-3.2-7.8-3.2c-3,0-5.6,1.1-7.8,3.2C772.4,30.7,771.4,33.3,771.4,36.4z M788.5,44.2h-2.9l-1.7-3.8
		c-0.4-0.9-0.8-1.6-1.3-2.1c-0.5-0.5-0.9-0.7-1.4-0.7h-1.4v6.6h-2.4V28.3h4.6c1.8,0,3.3,0.4,4.3,1.1c1,0.8,1.5,1.8,1.5,3.2
		c0,1.1-0.3,2-1,2.8c-0.7,0.8-1.7,1.3-2.9,1.5c0.4,0.1,0.9,0.4,1.3,0.9c0.4,0.5,0.9,1.2,1.3,2L788.5,44.2z M779.8,30.3v5.3h2.3
		c1,0,1.8-0.2,2.4-0.7s0.8-1.1,0.8-2c0-0.9-0.3-1.6-0.9-2c-0.6-0.4-1.5-0.6-2.7-0.6H779.8z"/>
</g>
<g>
	<path class="st1" d="M261.3,162.3h12.5c2.8,0,5,0.2,6.5,0.6c2,0.6,3.7,1.6,5.1,3.1c1.4,1.5,2.5,3.3,3.2,5.5c0.7,2.2,1.1,4.8,1.1,8
		c0,2.8-0.3,5.2-1,7.2c-0.8,2.5-2.1,4.5-3.6,6c-1.2,1.2-2.8,2.1-4.8,2.7c-1.5,0.5-3.5,0.7-6.1,0.7h-12.9V162.3z M268.2,168.1v22.5
		h5.1c1.9,0,3.3-0.1,4.1-0.3c1.1-0.3,2-0.7,2.8-1.4c0.7-0.7,1.3-1.8,1.8-3.3c0.5-1.5,0.7-3.6,0.7-6.2s-0.2-4.6-0.7-6
		c-0.5-1.4-1.1-2.5-1.9-3.3s-1.9-1.3-3.2-1.6c-1-0.2-2.8-0.3-5.6-0.3H268.2z"/>
	<path class="st1" d="M309.8,188.5l6.5,1.1c-0.8,2.4-2.1,4.2-3.9,5.4c-1.8,1.2-4,1.9-6.7,1.9c-4.3,0-7.4-1.4-9.5-4.2
		c-1.6-2.2-2.4-5.1-2.4-8.5c0-4.1,1.1-7.3,3.2-9.6c2.1-2.3,4.8-3.5,8.1-3.5c3.7,0,6.5,1.2,8.7,3.6c2.1,2.4,3.1,6.1,3,11.1h-16.3
		c0,1.9,0.6,3.4,1.6,4.5c1,1.1,2.3,1.6,3.8,1.6c1,0,1.9-0.3,2.6-0.8C308.9,190.6,309.4,189.7,309.8,188.5z M310.1,181.9
		c0-1.9-0.5-3.3-1.5-4.3c-0.9-1-2.1-1.5-3.4-1.5c-1.4,0-2.6,0.5-3.5,1.6c-0.9,1-1.4,2.4-1.4,4.2H310.1z"/>
	<path class="st1" d="M336.1,188.5l6.5,1.1c-0.8,2.4-2.1,4.2-3.9,5.4c-1.8,1.2-4,1.9-6.7,1.9c-4.3,0-7.4-1.4-9.5-4.2
		c-1.6-2.2-2.4-5.1-2.4-8.5c0-4.1,1.1-7.3,3.2-9.6c2.1-2.3,4.8-3.5,8.1-3.5c3.7,0,6.5,1.2,8.7,3.6c2.1,2.4,3.1,6.1,3,11.1h-16.3
		c0,1.9,0.6,3.4,1.6,4.5c1,1.1,2.3,1.6,3.8,1.6c1,0,1.9-0.3,2.6-0.8C335.3,190.6,335.8,189.7,336.1,188.5z M336.5,181.9
		c0-1.9-0.5-3.3-1.5-4.3c-0.9-1-2.1-1.5-3.4-1.5c-1.4,0-2.6,0.5-3.5,1.6c-0.9,1-1.4,2.4-1.4,4.2H336.5z"/>
	<path class="st1" d="M348.1,171.7h6.1v3.6c0.8-1.2,1.9-2.2,3.2-3c1.3-0.8,2.8-1.2,4.5-1.2c2.9,0,5.3,1.1,7.3,3.4c2,2.2,3,5.4,3,9.4
		c0,4.1-1,7.3-3,9.6c-2,2.3-4.4,3.4-7.3,3.4c-1.4,0-2.6-0.3-3.7-0.8s-2.3-1.5-3.5-2.8v12.4h-6.5V171.7z M354.5,183.6
		c0,2.8,0.5,4.8,1.6,6.1c1.1,1.3,2.4,2,4,2c1.5,0,2.8-0.6,3.8-1.8c1-1.2,1.5-3.2,1.5-6c0-2.6-0.5-4.5-1.6-5.7
		c-1-1.3-2.3-1.9-3.8-1.9c-1.6,0-2.9,0.6-4,1.8C355,179.3,354.5,181.2,354.5,183.6z"/>
	<path class="st1" d="M388.7,185.2l6.7-0.6c0.4,2.2,1.2,3.9,2.4,4.9c1.2,1,2.9,1.6,5,1.6c2.2,0,3.9-0.5,5-1.4c1.1-0.9,1.7-2,1.7-3.3
		c0-0.8-0.2-1.5-0.7-2c-0.5-0.6-1.3-1.1-2.5-1.5c-0.8-0.3-2.6-0.8-5.5-1.5c-3.7-0.9-6.3-2-7.7-3.4c-2.1-1.9-3.1-4.1-3.1-6.8
		c0-1.7,0.5-3.3,1.5-4.9c1-1.5,2.4-2.7,4.2-3.4c1.8-0.8,4.1-1.2,6.7-1.2c4.3,0,7.5,0.9,9.6,2.8c2.2,1.9,3.3,4.4,3.4,7.5l-6.9,0.3
		c-0.3-1.7-0.9-3-1.9-3.8c-1-0.8-2.4-1.1-4.3-1.1c-2,0-3.6,0.4-4.7,1.2c-0.7,0.5-1.1,1.2-1.1,2.1c0,0.8,0.3,1.5,1,2.1
		c0.9,0.7,3,1.5,6.3,2.3s5.8,1.6,7.4,2.4c1.6,0.8,2.8,2,3.8,3.5c0.9,1.5,1.4,3.3,1.4,5.4c0,1.9-0.5,3.8-1.6,5.5
		c-1.1,1.7-2.6,3-4.6,3.8c-2,0.8-4.4,1.2-7.4,1.2c-4.3,0-7.6-1-9.9-3C390.5,191.9,389.2,189,388.7,185.2z"/>
	<path class="st1" d="M421.8,171.7h6.1v3.6c0.8-1.2,1.9-2.2,3.2-3c1.3-0.8,2.8-1.2,4.5-1.2c2.9,0,5.3,1.1,7.3,3.4s3,5.4,3,9.4
		c0,4.1-1,7.3-3,9.6c-2,2.3-4.4,3.4-7.3,3.4c-1.4,0-2.6-0.3-3.7-0.8s-2.3-1.5-3.5-2.8v12.4h-6.5V171.7z M428.3,183.6
		c0,2.8,0.5,4.8,1.6,6.1c1.1,1.3,2.4,2,4,2c1.5,0,2.8-0.6,3.8-1.8c1-1.2,1.5-3.2,1.5-6c0-2.6-0.5-4.5-1.6-5.7
		c-1-1.3-2.3-1.9-3.8-1.9c-1.6,0-2.9,0.6-4,1.8C428.8,179.3,428.3,181.2,428.3,183.6z"/>
	<path class="st1" d="M457.2,196.3h-6.5v-24.6h6v3.5c1-1.7,2-2.7,2.8-3.3c0.8-0.5,1.8-0.8,2.8-0.8c1.5,0,2.9,0.4,4.3,1.2l-2,5.7
		c-1.1-0.7-2.1-1.1-3.1-1.1c-0.9,0-1.7,0.3-2.3,0.8s-1.1,1.4-1.5,2.7c-0.4,1.3-0.5,4.1-0.5,8.2V196.3z"/>
	<path class="st1" d="M469.4,168.4v-6h6.5v6H469.4z M469.4,196.3v-24.6h6.5v24.6H469.4z"/>
	<path class="st1" d="M505,196.3h-6.5v-12.5c0-2.7-0.1-4.4-0.4-5.2c-0.3-0.8-0.7-1.4-1.4-1.8c-0.6-0.4-1.4-0.6-2.3-0.6
		c-1.1,0-2.1,0.3-3,0.9s-1.5,1.4-1.8,2.5c-0.3,1-0.5,2.9-0.5,5.6v11.1h-6.5v-24.6h6v3.6c2.1-2.8,4.8-4.2,8.1-4.2
		c1.4,0,2.7,0.3,3.9,0.8c1.2,0.5,2.1,1.2,2.7,2c0.6,0.8,1,1.7,1.3,2.7c0.2,1,0.4,2.5,0.4,4.4V196.3z"/>
	<path class="st1" d="M511,197.9l7.4,0.9c0.1,0.9,0.4,1.5,0.9,1.8c0.6,0.5,1.6,0.7,2.9,0.7c1.7,0,3-0.3,3.8-0.8
		c0.6-0.3,1-0.9,1.3-1.6c0.2-0.5,0.3-1.5,0.3-3v-3.6c-1.9,2.7-4.4,4-7.4,4c-3.3,0-5.9-1.4-7.8-4.2c-1.5-2.2-2.3-5-2.3-8.2
		c0-4.1,1-7.3,3-9.4c2-2.2,4.4-3.3,7.4-3.3c3,0,5.5,1.3,7.5,4v-3.4h6.1v22.1c0,2.9-0.2,5.1-0.7,6.5s-1.1,2.6-2,3.4
		c-0.9,0.8-2,1.5-3.5,1.9s-3.3,0.7-5.5,0.7c-4.2,0-7.1-0.7-8.9-2.1s-2.6-3.2-2.6-5.4C511,198.5,511,198.2,511,197.9z M516.8,183.5
		c0,2.6,0.5,4.5,1.5,5.7c1,1.2,2.3,1.8,3.7,1.8c1.6,0,2.9-0.6,4-1.9s1.6-3.1,1.6-5.5c0-2.5-0.5-4.4-1.6-5.7c-1.1-1.2-2.4-1.9-4-1.9
		c-1.6,0-2.8,0.6-3.9,1.8C517.3,179.1,516.8,181,516.8,183.5z"/>
	<path class="st1" d="M553.8,196.3v-33.9h25.2v5.7h-18.3v7.5h17v5.7h-17v9.2h19v5.7H553.8z"/>
	<path class="st1" d="M607.9,196.3h-6v-3.6c-1,1.4-2.2,2.5-3.6,3.1s-2.7,1-4.1,1c-2.8,0-5.2-1.1-7.3-3.4c-2-2.3-3-5.5-3-9.5
		c0-4.2,1-7.3,2.9-9.5c2-2.2,4.4-3.3,7.4-3.3c2.7,0,5.1,1.1,7.1,3.4v-12.2h6.5V196.3z M590.5,183.5c0,2.6,0.4,4.5,1.1,5.7
		c1,1.7,2.5,2.5,4.4,2.5c1.5,0,2.8-0.6,3.8-1.9s1.6-3.2,1.6-5.7c0-2.8-0.5-4.9-1.5-6.1s-2.3-1.9-3.9-1.9c-1.5,0-2.8,0.6-3.9,1.8
		S590.5,181,590.5,183.5z"/>
	<path class="st1" d="M630.5,196.3v-3.7c-0.9,1.3-2.1,2.3-3.5,3.1c-1.5,0.8-3,1.1-4.6,1.1c-1.7,0-3.1-0.4-4.4-1.1
		c-1.3-0.7-2.3-1.7-2.8-3.1c-0.6-1.3-0.9-3.1-0.9-5.4v-15.6h6.5V183c0,3.5,0.1,5.6,0.4,6.4c0.2,0.8,0.7,1.4,1.3,1.9s1.4,0.7,2.4,0.7
		c1.1,0,2.1-0.3,3-0.9c0.9-0.6,1.5-1.4,1.8-2.3c0.3-0.9,0.5-3.1,0.5-6.6v-10.4h6.5v24.6H630.5z"/>
	<path class="st1" d="M664.7,179l-6.4,1.2c-0.2-1.3-0.7-2.2-1.5-2.9c-0.8-0.6-1.8-1-3-1c-1.6,0-2.9,0.6-3.9,1.7
		c-1,1.1-1.4,3-1.4,5.6c0,2.9,0.5,5,1.5,6.2c1,1.2,2.3,1.8,3.9,1.8c1.2,0,2.2-0.4,3-1.1c0.8-0.7,1.3-1.9,1.7-3.6l6.4,1.1
		c-0.7,2.9-1.9,5.1-3.8,6.6c-1.9,1.5-4.4,2.2-7.6,2.2c-3.6,0-6.5-1.1-8.6-3.4c-2.1-2.3-3.2-5.4-3.2-9.4c0-4.1,1.1-7.2,3.2-9.5
		c2.1-2.3,5-3.4,8.7-3.4c3,0,5.4,0.6,7.1,1.9C662.7,174.4,663.9,176.3,664.7,179z"/>
	<path class="st1" d="M674.5,179.2l-5.9-1.1c0.7-2.4,1.8-4.1,3.4-5.3c1.6-1.1,4-1.7,7.2-1.7c2.9,0,5.1,0.3,6.5,1s2.4,1.6,3,2.6
		c0.6,1.1,0.9,3,0.9,5.8l-0.1,7.6c0,2.2,0.1,3.8,0.3,4.8c0.2,1,0.6,2.1,1.2,3.3h-6.4c-0.2-0.4-0.4-1.1-0.6-1.9
		c-0.1-0.4-0.2-0.6-0.2-0.8c-1.1,1.1-2.3,1.9-3.6,2.4c-1.3,0.5-2.6,0.8-4.1,0.8c-2.5,0-4.5-0.7-6-2.1c-1.5-1.4-2.2-3.1-2.2-5.2
		c0-1.4,0.3-2.6,1-3.7c0.7-1.1,1.6-1.9,2.8-2.5s2.9-1.1,5.2-1.5c3-0.6,5.1-1.1,6.3-1.6v-0.6c0-1.3-0.3-2.1-0.9-2.7
		c-0.6-0.5-1.8-0.8-3.5-0.8c-1.2,0-2.1,0.2-2.7,0.7S674.9,178.1,674.5,179.2z M683.2,184.5c-0.8,0.3-2.2,0.6-4,1
		c-1.8,0.4-3,0.8-3.5,1.1c-0.8,0.6-1.3,1.4-1.3,2.3c0,0.9,0.3,1.7,1,2.4c0.7,0.7,1.5,1,2.6,1c1.2,0,2.3-0.4,3.4-1.2
		c0.8-0.6,1.3-1.3,1.6-2.2c0.2-0.6,0.3-1.6,0.3-3.2V184.5z"/>
	<path class="st1" d="M707.3,171.7v5.2h-4.4v9.9c0,2,0,3.2,0.1,3.5c0.1,0.3,0.3,0.6,0.6,0.8c0.3,0.2,0.7,0.3,1.1,0.3
		c0.6,0,1.5-0.2,2.6-0.6l0.6,5c-1.5,0.6-3.2,1-5.1,1c-1.2,0-2.2-0.2-3.2-0.6s-1.6-0.9-2.1-1.5c-0.4-0.6-0.7-1.5-0.9-2.5
		c-0.1-0.8-0.2-2.3-0.2-4.6v-10.7h-3v-5.2h3v-4.9l6.5-3.8v8.7H707.3z"/>
	<path class="st1" d="M711.8,168.4v-6h6.5v6H711.8z M711.8,196.3v-24.6h6.5v24.6H711.8z"/>
	<path class="st1" d="M723.5,183.6c0-2.2,0.5-4.3,1.6-6.3c1.1-2,2.6-3.6,4.5-4.6c2-1.1,4.1-1.6,6.5-1.6c3.7,0,6.8,1.2,9.1,3.6
		c2.4,2.4,3.6,5.5,3.6,9.2c0,3.7-1.2,6.8-3.6,9.2c-2.4,2.4-5.4,3.7-9.1,3.7c-2.3,0-4.4-0.5-6.4-1.5s-3.6-2.5-4.7-4.5
		S723.5,186.5,723.5,183.6z M730.1,184c0,2.4,0.6,4.3,1.7,5.6c1.2,1.3,2.6,1.9,4.3,1.9s3.1-0.6,4.3-1.9c1.2-1.3,1.7-3.2,1.7-5.6
		c0-2.4-0.6-4.3-1.7-5.6c-1.1-1.3-2.6-1.9-4.3-1.9s-3.1,0.6-4.3,1.9C730.7,179.7,730.1,181.6,730.1,184z"/>
	<path class="st1" d="M776.3,196.3h-6.5v-12.5c0-2.7-0.1-4.4-0.4-5.2c-0.3-0.8-0.7-1.4-1.4-1.8c-0.6-0.4-1.4-0.6-2.3-0.6
		c-1.1,0-2.1,0.3-3,0.9s-1.5,1.4-1.8,2.5c-0.3,1-0.5,2.9-0.5,5.6v11.1h-6.5v-24.6h6v3.6c2.1-2.8,4.8-4.2,8.1-4.2
		c1.4,0,2.7,0.3,3.9,0.8c1.2,0.5,2.1,1.2,2.7,2c0.6,0.8,1,1.7,1.3,2.7c0.2,1,0.4,2.5,0.4,4.4V196.3z"/>
</g>
<g>
</g>
<g>
</g>
<g>
</g>
<g>
</g>
<g>
</g>
<g>
</g>
</svg>
