<?xml version="1.0" encoding="utf-8"?>
<!-- Generator: Adobe Illustrator 21.0.0, SVG Export Plug-In . SVG Version: 6.00 Build 0)  -->
<svg version="1.1" id="图层_1" xmlns="http://www.w3.org/2000/svg" xmlns:xlink="http://www.w3.org/1999/xlink" x="0px" y="0px"
	 viewBox="0 0 300 222" style="enable-background:new 0 0 300 222;" xml:space="preserve">
<style type="text/css">
	.st0{fill:#006297;}
	.st1{fill:#FFFFFF;}
	.st2{fill:#0A5F8F;}
	.st3{fill:none;stroke:#006297;stroke-width:5;stroke-miterlimit:10;}
</style>
<path class="st0" d="M153.9,152.7c16.7,15,22.8,20.6,48.1,13.1c28.1-8.3,51.4-14.6,67.9-15.2c-4-44.9-19.7-92.5-82.2-92.5
	c-76.5,0-117.1,160-153.3,66.6c-1.3,33.3,9.4,52.2,32.4,62.5C83.8,175.2,143.2,143.1,153.9,152.7z"/>
<g>
	<path class="st1" d="M151.2,198.5c-41.3,0-66-3.6-84.5-12.4c16.7-11.4,62.3-36.6,80.3-36.6c2.5,0,4.2,0.5,5.3,1.4l1,0.9
		c11.4,10.3,18.3,16.5,30.5,16.5c4.9,0,10.6-1,17.9-3.2c3.6-1.1,7.1-2.1,10.4-3.1c22-6.6,36.6-11,50.7-12l0.1,1.2
		c1,11.4-2.8,22.6-10.6,31.3c-7.8,8.8-18.9,14-30.4,14.4l-10.2,0.3C188.8,197.9,169.1,198.5,151.2,198.5
		C151.2,198.5,151.2,198.5,151.2,198.5z"/>
	<path class="st2" d="M146.9,150.4c2.2,0,3.8,0.4,4.6,1.2l1,0.9c11.6,10.5,18.6,16.8,31.2,16.8c5,0,10.8-1,18.2-3.2
		c3.6-1.1,7.1-2.1,10.4-3.1c21.4-6.4,35.8-10.7,49.5-11.9l0,0.2c1,11.1-2.7,22-10.3,30.6c-7.6,8.6-18.4,13.7-29.6,14
		c-3.5,0.1-6.9,0.2-10.2,0.3c-22.9,0.7-42.6,1.3-60.5,1.3c-40,0-64.3-3.4-82.5-11.6C87,173.7,130.3,150.4,146.9,150.4 M146.9,148.4
		c-18.8,0-67.3,27.2-82.2,37.8c21,10.5,49,13.3,86.5,13.3c20.6,0,44-0.8,70.7-1.6c24.5-0.7,44-22.4,41.9-46.8l-0.2-2.2
		c-16.6,1.1-34.1,6.9-62.3,15.3c-7.2,2.1-12.8,3.1-17.6,3.1c-12.1,0-18.9-6.4-30.8-17.2C151.6,149,149.6,148.4,146.9,148.4
		L146.9,148.4z"/>
</g>
<ellipse transform="matrix(0.7071 -0.7071 0.7071 0.7071 -46.7436 164.3072)" class="st1" cx="175" cy="138.6" rx="5.1" ry="5.1"/>
<g>
	<path class="st3" d="M234,14c33.5,0,60.6,27.1,60.6,60.6"/>
	<path class="st3" d="M234,27.8c25.8,0,46.8,20.9,46.8,46.8"/>
	<path class="st3" d="M234,41.9c18.1,0,32.7,14.6,32.7,32.7"/>
</g>
<path class="st0" d="M78.2,117.8c8.3-23.5-17.8-38.2-36.5-20.2C29,90.1,4.2,92.8,5.6,114.9c12.1-3.4,29-0.3,29.4,25.4
	c4.5-0.3,8.8,10.2,14.3,9.3C37.1,138.6,53.5,105.4,78.2,117.8z"/>
<g>
</g>
<g>
</g>
<g>
</g>
<g>
</g>
<g>
</g>
<g>
</g>
</svg>
